<?xml version="1.0" encoding="utf-8"?>
<!-- Generator: Adobe Illustrator 23.0.3, SVG Export Plug-In . SVG Version: 6.00 Build 0)  -->
<svg version="1.1" id="Calque_1" xmlns="http://www.w3.org/2000/svg" xmlns:xlink="http://www.w3.org/1999/xlink" x="0px" y="0px"
	 viewBox="0 0 100 125" style="enable-background:new 0 0 100 125;" xml:space="preserve">
<style type="text/css">
	<!--  #FFFFFF;stroke:#FFFFFF;stroke-miterlimit:10;} -->
</style>
<g>
	<g>
		<path class="st0" d="M92,63.5H82c-0.6,0-1.1-0.5-1.1-1.1s0.5-1.1,1.1-1.1h10c0.6,0,1.1,0.5,1.1,1.1C93.2,63,92.7,63.5,92,63.5z"/>
	</g>
	<g>
		<path class="st0" d="M87,103.7c-0.6,0-1.1-0.5-1.1-1.1v-25c0-0.6,0.5-1.1,1.1-1.1s1.1,0.5,1.1,1.1v25
			C88.1,103.2,87.6,103.7,87,103.7z"/>
	</g>
	<g>
		<path class="st0" d="M87,78.7c-1.2,0-2.5-0.3-3.7-0.9c-3.1-1.5-5.3-4.5-5.8-8.1c-1.1-7.6,1.4-17.8,1.5-18.2c0.1-0.6,0.7-1,1.3-0.8
			c0.6,0.1,1,0.7,0.8,1.3c0,0.1-2.5,10.2-1.4,17.4c0.4,2.9,2.1,5.3,4.6,6.5c1.8,0.9,3.6,0.9,5.4,0c2.4-1.2,4.1-3.6,4.6-6.5
			c1.1-7.2-1.4-17.3-1.4-17.4c-0.1-0.6,0.2-1.2,0.8-1.3c0.6-0.1,1.2,0.2,1.3,0.8c0.1,0.4,2.6,10.7,1.5,18.2
			c-0.5,3.6-2.7,6.6-5.8,8.1C89.5,78.4,88.2,78.7,87,78.7z"/>
	</g>
	<g>
		<path class="st0" d="M87,106.8h-8.5c-0.6,0-1.1-0.5-1.1-1.1s0.5-1.1,1.1-1.1H87c6.1,0,9.8-1,10.7-1.7c-0.9-0.7-4.5-1.7-10.7-1.7
			c-0.6,0-1.1-0.5-1.1-1.1S86.4,99,87,99c1.3,0,13,0.1,13,3.9C100,106.7,88.3,106.8,87,106.8z"/>
	</g>
	<g>
		<path class="st0" d="M44.3,106.8C19.9,106.8,0,87,0,62.5s19.9-44.3,44.3-44.3c2.3,0,4.7,0.2,6.9,0.5c0.6,0.1,1,0.7,0.9,1.3
			c-0.1,0.6-0.7,1-1.3,0.9c-2.2-0.3-4.4-0.5-6.6-0.5c-23.1,0-42,18.9-42,42.1s18.9,42.1,42.1,42.1c0.6,0,1.1,0.5,1.1,1.1
			C45.5,106.4,45,106.8,44.3,106.8z"/>
	</g>
	<g>
		<path class="st0" d="M44.3,99.2c-20.2,0-36.7-16.4-36.7-36.7s16.5-36.7,36.7-36.7c1.3,0,2.5,0.1,3.8,0.2c0.6,0.1,1,0.6,1,1.2
			c-0.1,0.6-0.6,1-1.2,1c-1.2-0.1-2.4-0.2-3.5-0.2C25.3,28,9.8,43.5,9.8,62.5S25.3,97,44.3,97c0.6,0,1.1,0.5,1.1,1.1
			C45.5,98.7,45,99.2,44.3,99.2z"/>
	</g>
	<g>
		<g>
			<path class="st0" d="M63.2,27c-0.6,0-1.1-0.5-1.1-1.1v-2.5H58v2.5c0,0.6-0.5,1.1-1.1,1.1s-1.1-0.5-1.1-1.1v-2.7c0-1.1,0.9-2,2-2
				h4.4c1.1,0,2,0.9,2,2v2.7C64.3,26.5,63.9,27,63.2,27z"/>
		</g>
		<g>
			<path class="st0" d="M65.8,30c-0.6,0-1.1-0.5-1.1-1.1v-1.1c0-0.4-0.4-0.8-0.8-0.8h-7.6c-0.4,0-0.8,0.4-0.8,0.8v1.1
				c0,0.6-0.5,1.1-1.1,1.1s-1.1-0.5-1.1-1.1v-1.1c0-1.7,1.3-3,3-3h7.6c1.7,0,3,1.3,3,3v1.1C66.9,29.5,66.4,30,65.8,30z"/>
		</g>
		<g>
			<path class="st0" d="M66.9,106.8H53.3c-2.9,0-5.2-2.4-5.2-5.3V69.3c0-8,4.1-18.2,4.2-18.7c4-9.2,3.7-13.9,3.7-13.9v-8.1h2.2v8
				c0,0.6,0.1,5.4-3.9,14.9c0,0.1-4.1,10.2-4.1,17.8v32.2c0,1.7,1.3,3.1,3,3.1H67c1.6,0,3-1.4,3-3.1V69.3c0-7.6-4-17.7-4.1-17.9
				C61.9,42,62,37.1,62,36.6v-8h2.2v8.1c0,0-0.2,4.7,3.7,13.9c0.2,0.5,4.2,10.7,4.2,18.7v32.2C72.1,104.4,69.8,106.8,66.9,106.8
				L66.9,106.8z"/>
		</g>
		<g>
			<rect x="49.2" y="85.3" class="st0" width="22.2" height="2.2"/>
		</g>
		<g>
			<rect x="49.2" y="69.2" class="st0" width="22.2" height="2.2"/>
		</g>
	</g>
	<g>
		<g>
			<path class="st0" d="M48,45.9H13.4c-0.6,0-1.1-0.5-1.1-1.1s0.5-1.1,1.1-1.1H48c0.6,0,1.1,0.5,1.1,1.1S48.6,45.9,48,45.9z"/>
		</g>
		<g>
			<path class="st0" d="M43.8,63.7H8.7c-0.6,0-1.1-0.5-1.1-1.1s0.5-1.1,1.1-1.1h35.1c0.6,0,1.1,0.5,1.1,1.1
				C44.9,63.2,44.4,63.7,43.8,63.7z"/>
		</g>
		<g>
			<path class="st0" d="M43.8,81.5H13.5c-0.6,0-1.1-0.5-1.1-1.1s0.5-1.1,1.1-1.1h30.3c0.6,0,1.1,0.5,1.1,1.1S44.4,81.5,43.8,81.5z"
				/>
		</g>
	</g>
</g>
</svg>
