<?xml version="1.0" encoding="utf-8"?>
<!-- Generator: Adobe Illustrator 23.0.3, SVG Export Plug-In . SVG Version: 6.00 Build 0)  -->
<svg version="1.1" id="Calque_1" xmlns="http://www.w3.org/2000/svg" xmlns:xlink="http://www.w3.org/1999/xlink" x="0px" y="0px"
	 viewBox="0 0 512 640" style="enable-background:new 0 0 512 640;" xml:space="preserve">
<g>
	<path class="st0" d="M110.6,350.1c-5.5,0-10,4.5-10,10c0,5.5,4.5,10,10,10c5.5,0,10-4.5,10-10C120.6,354.6,116.1,350.1,110.6,350.1
		z"/>
	<path class="st0" d="M490.7,288.8c-0.9-4.8,0.7-11.7,2.2-18.4c2.4-10.1,5-21.5,0.7-31.9c-4.4-10.6-14.5-16.9-23.4-22.4
		c-5.7-3.6-11.7-7.2-14.3-11.1c-2.7-4-3.8-10.9-4.9-17.6c-1.7-10.3-3.6-21.9-11.7-30c-8.1-8.1-19.7-10-30-11.7
		c-6.7-1.1-13.7-2.2-17.6-4.9c-3.9-2.6-7.6-8.6-11.1-14.3c-5.5-8.9-11.7-19-22.4-23.4c-10.4-4.3-21.9-1.7-31.9,0.7
		c-6.7,1.6-13.6,3.2-18.4,2.2c-4.8-0.9-11.6-5-18.3-9c-10.7-6.4-21.7-12.9-33.1-12.9c-11.4,0-22.4,6.6-33.1,12.9
		c-6.6,4-13.5,8-18.3,9c-4.8,0.9-11.7-0.7-18.4-2.2c-10.1-2.4-21.5-5-31.9-0.7c-10.6,4.4-16.9,14.5-22.4,23.4
		c-3.5,5.8-7.2,11.7-11.1,14.3c-4,2.7-10.9,3.8-17.6,4.9c-10.3,1.7-21.9,3.6-30,11.7c-8.1,8.1-10,19.7-11.7,29.9
		c-1.1,6.7-2.2,13.7-4.9,17.7c-2.6,3.9-8.5,7.6-14.3,11.1c-8.9,5.5-19,11.7-23.4,22.4c-4.3,10.5-1.7,21.9,0.7,31.9
		c1.6,6.7,3.2,13.6,2.2,18.4c-0.9,4.8-5,11.6-9,18.3c-6.4,10.7-12.9,21.7-12.9,33.1c0,11.4,6.6,22.4,12.9,33.1
		c3.9,6.6,8,13.5,9,18.3c0.9,4.8-0.7,11.7-2.2,18.4c-2.4,10.1-5,21.5-0.7,31.9c4.4,10.6,14.5,16.9,23.4,22.4
		c5.7,3.5,11.7,7.2,14.3,11.1c2.7,4,3.8,10.9,4.9,17.6c1.7,10.2,3.6,21.9,11.7,29.9c8.1,8.1,19.7,10,29.9,11.7
		c6.7,1.1,13.7,2.2,17.7,4.9c3.9,2.6,7.6,8.5,11.1,14.3c5.5,8.9,11.7,19,22.4,23.4c10.4,4.3,21.9,1.7,31.9-0.7
		c6.7-1.6,13.6-3.2,18.4-2.2c4.8,0.9,11.6,5,18.3,9c10.7,6.4,21.7,12.9,33.1,12.9c11.4,0,22.4-6.6,33.1-12.9c6.6-4,13.5-8,18.3-9
		c4.8-0.9,11.7,0.7,18.4,2.2c10.1,2.4,21.5,5,31.9,0.7c10.6-4.4,16.9-14.5,22.4-23.4c3.6-5.7,7.2-11.7,11.1-14.3
		c4-2.7,10.9-3.8,17.7-4.9c10.2-1.7,21.9-3.6,29.9-11.7c8.1-8.1,10-19.7,11.7-30c1.1-6.7,2.2-13.7,4.9-17.6
		c2.6-3.9,8.6-7.6,14.3-11.1c8.9-5.5,19-11.7,23.4-22.4c4.3-10.4,1.7-21.9-0.7-31.9c-1.6-6.7-3.2-13.6-2.2-18.4
		c0.9-4.8,5-11.6,9-18.3c6.4-10.7,12.9-21.7,12.9-33.1c0-11.4-6.6-22.4-12.9-33.1C495.8,300.4,491.7,293.5,490.7,288.8z M482.5,363
		c-4.8,8.1-9.8,16.5-11.4,24.6v0c-1.8,9,0.3,18.1,2.4,26.8c1.8,7.5,3.6,15.2,1.7,19.7c-1.9,4.7-8.8,8.9-15.4,13
		c-7.6,4.7-15.4,9.5-20.4,17c-5.1,7.6-6.6,16.7-8,25.5c-1.3,7.6-2.6,15.5-6.1,19.1c-3.5,3.5-11.4,4.8-19,6.1c-8.8,1.4-18,2.9-25.5,8
		c-7.5,5-12.3,12.8-17,20.4c-4.1,6.6-8.3,13.5-13,15.4c-4.5,1.9-12.2,0.1-19.7-1.7c-8.8-2.1-17.8-4.2-26.8-2.4
		c-8.2,1.6-16.5,6.6-24.6,11.4c-8,4.7-17,10.1-22.9,10.1c-5.9,0-14.9-5.4-22.9-10.1c-8.1-4.8-16.5-9.8-24.6-11.4
		c-9-1.8-18,0.3-26.8,2.4c-7.5,1.8-15.2,3.6-19.7,1.7c-4.7-1.9-8.9-8.8-13-15.4c-4.7-7.6-9.5-15.4-17-20.4c-7.6-5.1-16.7-6.6-25.6-8
		c-7.6-1.2-15.5-2.5-19-6.1c-3.5-3.5-4.8-11.4-6.1-19c-1.4-8.8-2.9-18-8-25.5c-5-7.5-12.8-12.3-20.4-17c-6.6-4.1-13.5-8.3-15.4-13
		c-1.9-4.5-0.1-12.2,1.7-19.7c2.1-8.8,4.2-17.8,2.4-26.8c-1.6-8.2-6.6-16.5-11.4-24.6c-4.7-8-10.1-17-10.1-22.9
		c0-5.9,5.4-14.9,10.1-22.9c4.8-8.1,9.8-16.5,11.4-24.6c1.8-9-0.3-18.1-2.4-26.8c-1.8-7.5-3.6-15.2-1.7-19.7
		c1.9-4.7,8.8-8.9,15.4-13c7.6-4.7,15.4-9.5,20.4-17c5.1-7.6,6.6-16.7,8-25.6c1.2-7.6,2.5-15.5,6.1-19c3.5-3.5,11.4-4.8,19.1-6.1
		c8.8-1.4,17.9-2.9,25.5-8c7.5-5,12.3-12.8,17-20.4c4.1-6.6,8.3-13.5,13-15.4c4.5-1.9,12.2-0.1,19.7,1.7c8.8,2.1,17.8,4.2,26.8,2.4
		c8.2-1.6,16.5-6.6,24.6-11.4c8-4.8,17-10.1,22.9-10.1c5.9,0,14.9,5.4,22.9,10.1c8.1,4.8,16.5,9.8,24.6,11.4
		c9,1.8,18.1-0.3,26.8-2.4c7.5-1.8,15.2-3.6,19.7-1.7c4.7,1.9,8.9,8.8,13,15.4c4.7,7.6,9.5,15.4,17,20.4c7.6,5.1,16.7,6.6,25.5,8
		c7.6,1.3,15.5,2.6,19.1,6.1c3.5,3.5,4.8,11.4,6.1,19.1c1.4,8.8,2.9,17.9,8,25.5c5,7.5,12.8,12.3,20.4,17c6.6,4.1,13.5,8.3,15.4,13
		c1.9,4.5,0,12.2-1.7,19.7c-2.1,8.8-4.2,17.8-2.4,26.8c1.6,8.2,6.6,16.5,11.4,24.6c4.7,8,10.1,17,10.1,22.9
		C492.7,346,487.3,355,482.5,363z"/>
	<path class="st0" d="M256.6,144.1c-104.5,0-196,91.1-196,196c0,104.5,91.1,196,196,196c104.5,0,196-91.1,196-196
		C452.6,235.6,361.5,144.1,256.6,144.1z M256.6,516.1c-93.8,0-176-82.2-176-176s82.2-176,176-176s176,82.2,176,176
		S350.4,516.1,256.6,516.1z"/>
	<path class="st0" d="M256.6,204.1c5.5,0,10-4.5,10-10s-4.5-10-10-10c-75.2,0-144,61.6-154.5,134.6c-0.8,5.5,3,10.5,8.5,11.3
		c0.5,0.1,1,0.1,1.4,0.1c4.9,0,9.2-3.6,9.9-8.6C131.1,257.9,192.7,204.1,256.6,204.1z"/>
	<path class="st0" d="M348,316.5l-57.1-8.3l-25.5-51.7c-1.7-3.4-5.2-5.6-9-5.6c-3.8,0-7.3,2.2-9,5.6l-25.5,51.7l-57.1,8.3
		c-3.8,0.5-6.9,3.2-8.1,6.8c-1.2,3.6-0.2,7.6,2.5,10.2l41.3,40.3l-9.8,56.9c-0.6,3.8,0.9,7.5,4,9.8c3.1,2.2,7.2,2.5,10.5,0.8
		l51.1-26.9l51.1,26.9c3.3,1.8,7.4,1.5,10.5-0.8c3.1-2.2,4.6-6,4-9.8l-9.8-56.9l41.3-40.3c2.7-2.7,3.7-6.6,2.5-10.3
		C354.9,319.7,351.8,317.1,348,316.5z M294.5,363.2c-2.4,2.3-3.4,5.6-2.9,8.9l7.2,42.1l-37.8-19.9c-2.9-1.5-6.4-1.5-9.3,0L214,414.1
		l7.2-42.1c0.6-3.2-0.5-6.6-2.9-8.9l-30.6-29.8l42.2-6.1c3.3-0.5,6.1-2.5,7.5-5.5l18.9-38.3l18.9,38.3c1.5,3,4.3,5,7.5,5.5l42.2,6.1
		L294.5,363.2z"/>
</g>
</svg>
