<?xml version="1.0" encoding="utf-8"?>
<!-- Generator: Adobe Illustrator 23.0.3, SVG Export Plug-In . SVG Version: 6.00 Build 0)  -->
<svg version="1.1" id="Calque_1" xmlns="http://www.w3.org/2000/svg" xmlns:xlink="http://www.w3.org/1999/xlink" x="0px" y="0px"
	 viewBox="0 0 24 30" style="enable-background:new 0 0 24 30;" xml:space="preserve">
<g>
	<g>
		<path class="st0" d="M14.9,14.7c2.6-2.6,2.6-6.8,0-9.3c-2.6-2.6-6.8-2.6-9.3,0C3,7.9,3,12.1,5.6,14.7
			C8.1,17.3,12.3,17.3,14.9,14.7z M15.7,16.6c-3.3,2.8-8.3,2.6-11.4-0.5C1,12.8,1,7.4,4.3,4.1s8.7-3.3,12,0c3,3,3.3,7.8,0.8,11.1
			l3.8,3.8c0.4,0.4,0.4,1,0,1.4s-1,0.4-1.4,0L15.7,16.6z"/>
	</g>
</g>
</svg>
