<?xml version="1.0" encoding="utf-8"?>
<!-- Generator: Adobe Illustrator 23.0.3, SVG Export Plug-In . SVG Version: 6.00 Build 0)  -->
<svg version="1.1" id="Calque_1" xmlns="http://www.w3.org/2000/svg" xmlns:xlink="http://www.w3.org/1999/xlink" x="0px" y="0px"
	 viewBox="0 0 315 418.8" style="enable-background:new 0 0 315 418.8;" xml:space="preserve">
<style type="text/css">
	.st0{fill:#9A203F;}
</style>
<g>
	<path class="st0" d="M158,48.8c50,0,90,41,90,91s-40,90-90,90s-91-40-91-90S108,48.8,158,48.8z M158,73.8c-37,0-66,29-66,66
		c0,36,29,65,66,65c36,0,65-29,65-65C223,102.8,194,73.8,158,73.8z"/>
	<path class="st0" d="M25,371.8c0,6-6,12-13,12c-6,0-12-6-12-12c0-66,41-125,102-148c6-2,13,1,16,7c2,7-1,14-8,16
		C59,266.8,25,315.8,25,371.8z M205,246.8c-7-2-10-9-7-16c2-6,9-9,15-7c62,23,102,82,102,148c0,6-5,12-12,12s-13-6-13-12
		C290,315.8,256,266.8,205,246.8z"/>
</g>
</svg>
