<?xml version="1.0" encoding="utf-8"?>
<!-- Generator: Adobe Illustrator 23.0.3, SVG Export Plug-In . SVG Version: 6.00 Build 0)  -->
<svg version="1.1" id="Calque_1" xmlns="http://www.w3.org/2000/svg" xmlns:xlink="http://www.w3.org/1999/xlink" x="0px" y="0px"
	 viewBox="0 0 100 125" style="enable-background:new 0 0 100 125;" xml:space="preserve">
<style type="text/css">
	.st0{fill:#EEB707;}
</style>
<path class="st0" d="M48.9,37.3c0,0-0.1-0.1-0.1-0.1c0,0.5,0,1.1,0,1.8c0,3.9-1,4.6-2.4,5.6l-0.2,0.1c-1.5,1.1-3.8,4.5-3.8,7.3v51.3
	c0,4.4,4.3,4.4,5.8,4.4h9.7c1.4,0,5.8,0,5.8-4.4V51.9c0-2.7-2.3-6.2-3.8-7.3l-0.2-0.1c-1.4-1-2.4-1.7-2.4-5.6c0-4.2,0-5.3,0-5.3
	c0-0.1,0-0.1,0-0.2c0,0,0,0,0,0c0-1.7,0-2.9-0.1-3.7c0-1.3-0.1-5.1-0.2-6.5c0.2-0.1,0.4-0.3,0.4-0.5v-3c0-0.2-0.2-0.4-0.4-0.5v-0.9
	c0-0.3-0.2-0.5-0.5-0.5c-0.1,0-2.3-0.1-3.2-0.1h-0.5c-1,0-3.1,0.1-3.2,0.1c-0.3,0-0.5,0.2-0.5,0.5v0.9c-0.2,0.1-0.4,0.3-0.4,0.5v3
	c0,0.2,0.2,0.4,0.4,0.5c0,1.4-0.1,5.2-0.2,6.5c0,0.4,0,0.9,0,1.4c-0.1,1.5-0.1,3.3-0.1,5.9c0,0.1,0,0.1,0,0.2
	C48.8,37.2,48.8,37.3,48.9,37.3 M49.7,20.3c0.2-0.1,0.4-0.3,0.4-0.5v-0.9c0.7,0,2-0.1,2.7-0.1h0.5c0.7,0,2,0.1,2.7,0.1v0.9
	c0,0.2,0.2,0.4,0.4,0.5v2c-0.1,0-0.2,0.1-0.2,0.1C56,22.5,56,22.6,56,22.8c0,0,0.1,5.4,0.2,7c0,1.2,0.1,3.2,0.1,6.9
	c-0.4,0.1-1.3,0.2-2.7,0.2c0,0-0.1,0-0.1,0c-0.1,0-0.2,0-0.4,0c-0.1,0-0.3,0-0.4,0c0,0-0.1,0-0.1,0c-1.5,0-2.4-0.1-2.8-0.2
	c0-2.4,0.1-4.1,0.1-5.5c0-0.5,0-1,0-1.4c0-1.6,0.2-7,0.2-7c0-0.1,0-0.3-0.1-0.4c-0.1-0.1-0.1-0.1-0.2-0.1V20.3z M62.5,92.5
	c0,0-0.3,1.3-1.5,1.5c-1.2,0.2-6.7,0.4-7.8,0.4h-0.3c-1.1,0-6.6-0.3-7.8-0.4c-1.2-0.2-1.5-1.5-1.5-1.5s0-28.3,0-29.4
	s1.3-1.4,1.8-1.2c0.5,0.2,6.3,0.3,7.5,0.3h0.3c1.2,0,6.9-0.1,7.5-0.3c0.5-0.2,1.8,0.1,1.8,1.2C62.5,64.2,62.5,92.5,62.5,92.5z"/>
</svg>
